<svg width="48" height="48" viewBox="0 0 48 48" fill="none" xmlns="http://www.w3.org/2000/svg">
<rect width="48" height="48" rx="12" fill="white" fill-opacity="0.16"/>
<path d="M15.2988 24.2441C15.2988 23.8467 15.6318 23.5137 16.0293 23.5137H23.2695V16.2627C23.2695 15.876 23.6025 15.543 24 15.543C24.3975 15.543 24.7305 15.876 24.7305 16.2627V23.5137H31.9814C32.3682 23.5137 32.7012 23.8467 32.7012 24.2441C32.7012 24.6416 32.3682 24.9746 31.9814 24.9746H24.7305V32.2148C24.7305 32.6123 24.3975 32.9453 24 32.9453C23.6025 32.9453 23.2695 32.6123 23.2695 32.2148V24.9746H16.0293C15.6318 24.9746 15.2988 24.6416 15.2988 24.2441Z" fill="white"/>
</svg>
