<svg width="16" height="15" viewBox="0 0 16 15" fill="none" xmlns="http://www.w3.org/2000/svg">
<path d="M3.40592 14.6064C3.18034 14.4355 3.12565 14.1553 3.26921 13.7383L4.71843 9.36328L0.972332 6.66308C0.616863 6.41015 0.486981 6.15039 0.575848 5.87695C0.664715 5.61035 0.917645 5.47363 1.36198 5.47363L5.9694 5.50098L7.37761 1.10547C7.51433 0.68164 7.71257 0.483398 7.99968 0.483398C8.27995 0.483399 8.48503 0.681641 8.62175 1.10547L10.0299 5.50098L14.6374 5.47363C15.0749 5.47363 15.3278 5.61035 15.4167 5.87696C15.5055 6.15039 15.3825 6.41016 15.027 6.66309L11.2741 9.36328L12.7301 13.7383C12.8737 14.1553 12.819 14.4355 12.5866 14.6064C12.361 14.7773 12.0739 14.7295 11.7253 14.4697L7.99967 11.7422L4.27409 14.4697C3.91862 14.7295 3.63835 14.7773 3.40592 14.6064Z" fill="white"/>
</svg>
