<svg width="361" height="48" viewBox="0 0 361 48" fill="none" xmlns="http://www.w3.org/2000/svg">
<rect width="361" height="48" rx="12" fill="white" fill-opacity="0.16"/>
<path d="M145.926 22.1293H144.375C144.315 21.7978 144.204 21.5062 144.041 21.2543C143.879 21.0024 143.68 20.7886 143.445 20.6129C143.21 20.4373 142.946 20.3047 142.654 20.2152C142.366 20.1257 142.059 20.081 141.735 20.081C141.148 20.081 140.623 20.2285 140.159 20.5234C139.698 20.8184 139.333 21.2509 139.065 21.821C138.8 22.3911 138.667 23.0871 138.667 23.9091C138.667 24.7377 138.8 25.437 139.065 26.0071C139.333 26.5772 139.7 27.008 140.164 27.2997C140.628 27.5914 141.15 27.7372 141.73 27.7372C142.051 27.7372 142.356 27.6941 142.644 27.608C142.936 27.5185 143.2 27.3875 143.435 27.2152C143.67 27.0429 143.869 26.8324 144.031 26.5838C144.197 26.3319 144.312 26.0436 144.375 25.7188L145.926 25.7237C145.843 26.2242 145.682 26.6849 145.443 27.1058C145.208 27.5234 144.905 27.8847 144.534 28.1896C144.166 28.4912 143.745 28.7249 143.271 28.8906C142.797 29.0563 142.28 29.1392 141.72 29.1392C140.838 29.1392 140.053 28.9304 139.363 28.5128C138.674 28.0919 138.13 27.4903 137.732 26.7081C137.338 25.9259 137.141 24.9929 137.141 23.9091C137.141 22.822 137.34 21.889 137.737 21.1101C138.135 20.3279 138.679 19.728 139.368 19.3104C140.058 18.8894 140.841 18.679 141.72 18.679C142.26 18.679 142.764 18.7569 143.231 18.9126C143.702 19.0651 144.124 19.2905 144.499 19.5888C144.873 19.8838 145.183 20.245 145.429 20.6726C145.674 21.0968 145.84 21.5824 145.926 22.1293ZM147.745 29V21.3636H149.181V22.5767H149.261C149.4 22.1657 149.645 21.8426 149.997 21.6072C150.351 21.3686 150.752 21.2493 151.2 21.2493C151.293 21.2493 151.402 21.2526 151.528 21.2592C151.657 21.2659 151.758 21.2741 151.831 21.2841V22.706C151.772 22.6894 151.666 22.6712 151.513 22.6513C151.361 22.6281 151.208 22.6165 151.056 22.6165C150.704 22.6165 150.391 22.6911 150.116 22.8402C149.844 22.986 149.629 23.1899 149.47 23.4517C149.311 23.7102 149.231 24.0052 149.231 24.3366V29H147.745ZM156.235 29.1541C155.483 29.1541 154.835 28.9934 154.292 28.6719C153.751 28.3471 153.334 27.8913 153.039 27.3047C152.747 26.7147 152.601 26.0237 152.601 25.2315C152.601 24.4493 152.747 23.7599 153.039 23.1634C153.334 22.5668 153.745 22.1011 154.272 21.7663C154.802 21.4316 155.422 21.2642 156.131 21.2642C156.562 21.2642 156.979 21.3355 157.384 21.478C157.788 21.6205 158.151 21.8442 158.473 22.1491C158.794 22.4541 159.048 22.8501 159.233 23.3374C159.419 23.8213 159.512 24.4096 159.512 25.1023V25.6293H153.441V24.5156H158.055C158.055 24.1245 157.975 23.7782 157.816 23.4766C157.657 23.1716 157.434 22.9313 157.145 22.7557C156.86 22.58 156.525 22.4922 156.141 22.4922C155.723 22.4922 155.359 22.5949 155.047 22.8004C154.739 23.0026 154.5 23.2678 154.331 23.5959C154.166 23.9207 154.083 24.2737 154.083 24.6548V25.5249C154.083 26.0353 154.172 26.4695 154.351 26.8274C154.533 27.1854 154.787 27.4588 155.112 27.6477C155.437 27.8333 155.816 27.9261 156.25 27.9261C156.532 27.9261 156.789 27.8864 157.021 27.8068C157.253 27.724 157.453 27.6013 157.622 27.4389C157.792 27.2765 157.921 27.076 158.01 26.8374L159.417 27.0909C159.305 27.5052 159.102 27.8681 158.811 28.1797C158.522 28.4879 158.159 28.7282 157.722 28.9006C157.288 29.0696 156.792 29.1541 156.235 29.1541ZM163.483 29.169C162.999 29.169 162.562 29.0795 162.171 28.9006C161.78 28.7183 161.47 28.4548 161.241 28.1101C161.016 27.7654 160.903 27.3428 160.903 26.8423C160.903 26.4115 160.986 26.0568 161.152 25.7784C161.317 25.5 161.541 25.2796 161.823 25.1172C162.105 24.9548 162.419 24.8321 162.767 24.7493C163.115 24.6664 163.47 24.6035 163.831 24.5604C164.289 24.5073 164.66 24.4643 164.945 24.4311C165.23 24.3946 165.437 24.3366 165.566 24.2571C165.696 24.1776 165.76 24.0483 165.76 23.8693V23.8345C165.76 23.4003 165.638 23.0639 165.392 22.8253C165.15 22.5866 164.789 22.4673 164.309 22.4673C163.808 22.4673 163.414 22.5784 163.125 22.8004C162.84 23.0192 162.643 23.2628 162.534 23.5312L161.137 23.2131C161.302 22.7491 161.544 22.3745 161.863 22.0895C162.184 21.8011 162.554 21.5923 162.971 21.4631C163.389 21.3305 163.828 21.2642 164.289 21.2642C164.594 21.2642 164.917 21.3007 165.258 21.3736C165.603 21.4432 165.924 21.5724 166.223 21.7614C166.524 21.9503 166.771 22.2204 166.963 22.5717C167.156 22.9197 167.252 23.3722 167.252 23.929V29H165.8V27.956H165.74C165.644 28.1482 165.5 28.3371 165.308 28.5227C165.116 28.7083 164.869 28.8625 164.567 28.9851C164.266 29.1077 163.904 29.169 163.483 29.169ZM163.806 27.9759C164.217 27.9759 164.569 27.8946 164.86 27.7322C165.155 27.5698 165.379 27.3577 165.532 27.0959C165.687 26.8307 165.765 26.5473 165.765 26.2457V25.2614C165.712 25.3144 165.609 25.3641 165.457 25.4105C165.308 25.4536 165.137 25.4917 164.945 25.5249C164.753 25.5547 164.565 25.5829 164.383 25.6094C164.201 25.6326 164.048 25.6525 163.926 25.669C163.637 25.7055 163.374 25.7668 163.135 25.853C162.9 25.9392 162.711 26.0634 162.569 26.2259C162.429 26.3849 162.36 26.5971 162.36 26.8622C162.36 27.2301 162.496 27.5085 162.767 27.6974C163.039 27.883 163.386 27.9759 163.806 27.9759ZM172.896 21.3636V22.5568H168.725V21.3636H172.896ZM169.844 19.5341H171.33V26.7578C171.33 27.0462 171.373 27.2633 171.46 27.4091C171.546 27.5516 171.657 27.6494 171.793 27.7024C171.932 27.7521 172.083 27.777 172.245 27.777C172.364 27.777 172.469 27.7687 172.558 27.7521C172.648 27.7356 172.717 27.7223 172.767 27.7124L173.036 28.9403C172.949 28.9735 172.827 29.0066 172.668 29.0398C172.509 29.0762 172.31 29.0961 172.071 29.0994C171.68 29.1061 171.315 29.0365 170.977 28.8906C170.639 28.7448 170.366 28.5194 170.157 28.2145C169.948 27.9096 169.844 27.5268 169.844 27.0661V19.5341ZM177.85 29.1541C177.097 29.1541 176.45 28.9934 175.906 28.6719C175.366 28.3471 174.948 27.8913 174.653 27.3047C174.361 26.7147 174.216 26.0237 174.216 25.2315C174.216 24.4493 174.361 23.7599 174.653 23.1634C174.948 22.5668 175.359 22.1011 175.886 21.7663C176.416 21.4316 177.036 21.2642 177.745 21.2642C178.176 21.2642 178.594 21.3355 178.998 21.478C179.403 21.6205 179.766 21.8442 180.087 22.1491C180.409 22.4541 180.662 22.8501 180.848 23.3374C181.033 23.8213 181.126 24.4096 181.126 25.1023V25.6293H175.056V24.5156H179.669C179.669 24.1245 179.59 23.7782 179.431 23.4766C179.272 23.1716 179.048 22.9313 178.76 22.7557C178.475 22.58 178.14 22.4922 177.755 22.4922C177.338 22.4922 176.973 22.5949 176.662 22.8004C176.353 23.0026 176.115 23.2678 175.946 23.5959C175.78 23.9207 175.697 24.2737 175.697 24.6548V25.5249C175.697 26.0353 175.787 26.4695 175.966 26.8274C176.148 27.1854 176.401 27.4588 176.726 27.6477C177.051 27.8333 177.431 27.9261 177.865 27.9261C178.146 27.9261 178.403 27.8864 178.635 27.8068C178.867 27.724 179.068 27.6013 179.237 27.4389C179.406 27.2765 179.535 27.076 179.625 26.8374L181.032 27.0909C180.919 27.5052 180.717 27.8681 180.425 28.1797C180.137 28.4879 179.774 28.7282 179.336 28.9006C178.902 29.0696 178.407 29.1541 177.85 29.1541ZM186.298 20.1406V18.8182H194.178V20.1406H191.001V29H189.47V20.1406H186.298ZM195.9 29V21.3636H197.386V29H195.9ZM196.65 20.1854C196.392 20.1854 196.17 20.0992 195.984 19.9268C195.802 19.7512 195.711 19.5424 195.711 19.3004C195.711 19.0552 195.802 18.8464 195.984 18.674C196.17 18.4983 196.392 18.4105 196.65 18.4105C196.909 18.4105 197.129 18.4983 197.312 18.674C197.497 18.8464 197.59 19.0552 197.59 19.3004C197.59 19.5424 197.497 19.7512 197.312 19.9268C197.129 20.0992 196.909 20.1854 196.65 20.1854ZM199.486 29V21.3636H200.913V22.6065H201.007C201.166 22.1856 201.427 21.8575 201.788 21.6222C202.149 21.3835 202.582 21.2642 203.085 21.2642C203.596 21.2642 204.023 21.3835 204.368 21.6222C204.716 21.8608 204.973 22.1889 205.139 22.6065H205.218C205.401 22.1989 205.691 21.8741 206.088 21.6321C206.486 21.3868 206.96 21.2642 207.51 21.2642C208.203 21.2642 208.768 21.4813 209.205 21.9155C209.646 22.3497 209.867 23.0043 209.867 23.8793V29H208.38V24.0185C208.38 23.5014 208.239 23.1269 207.958 22.8949C207.676 22.6629 207.339 22.5469 206.948 22.5469C206.464 22.5469 206.088 22.696 205.82 22.9943C205.551 23.2893 205.417 23.6688 205.417 24.1328V29H203.936V23.924C203.936 23.5097 203.806 23.1766 203.548 22.9247C203.289 22.6728 202.953 22.5469 202.539 22.5469C202.257 22.5469 201.997 22.6214 201.758 22.7706C201.523 22.9164 201.332 23.1203 201.186 23.3821C201.044 23.6439 200.973 23.9472 200.973 24.2919V29H199.486ZM215.25 29.1541C214.498 29.1541 213.85 28.9934 213.306 28.6719C212.766 28.3471 212.348 27.8913 212.054 27.3047C211.762 26.7147 211.616 26.0237 211.616 25.2315C211.616 24.4493 211.762 23.7599 212.054 23.1634C212.348 22.5668 212.759 22.1011 213.286 21.7663C213.817 21.4316 214.437 21.2642 215.146 21.2642C215.577 21.2642 215.994 21.3355 216.399 21.478C216.803 21.6205 217.166 21.8442 217.487 22.1491C217.809 22.4541 218.063 22.8501 218.248 23.3374C218.434 23.8213 218.527 24.4096 218.527 25.1023V25.6293H212.456V24.5156H217.07C217.07 24.1245 216.99 23.7782 216.831 23.4766C216.672 23.1716 216.448 22.9313 216.16 22.7557C215.875 22.58 215.54 22.4922 215.156 22.4922C214.738 22.4922 214.374 22.5949 214.062 22.8004C213.754 23.0026 213.515 23.2678 213.346 23.5959C213.18 23.9207 213.098 24.2737 213.098 24.6548V25.5249C213.098 26.0353 213.187 26.4695 213.366 26.8274C213.548 27.1854 213.802 27.4588 214.127 27.6477C214.451 27.8333 214.831 27.9261 215.265 27.9261C215.547 27.9261 215.804 27.8864 216.036 27.8068C216.268 27.724 216.468 27.6013 216.637 27.4389C216.806 27.2765 216.936 27.076 217.025 26.8374L218.432 27.0909C218.319 27.5052 218.117 27.8681 217.826 28.1797C217.537 28.4879 217.174 28.7282 216.737 28.9006C216.303 29.0696 215.807 29.1541 215.25 29.1541ZM220.276 29V21.3636H221.713V22.5767H221.792C221.931 22.1657 222.177 21.8426 222.528 21.6072C222.883 21.3686 223.284 21.2493 223.731 21.2493C223.824 21.2493 223.933 21.2526 224.059 21.2592C224.188 21.2659 224.29 21.2741 224.363 21.2841V22.706C224.303 22.6894 224.197 22.6712 224.044 22.6513C223.892 22.6281 223.739 22.6165 223.587 22.6165C223.236 22.6165 222.922 22.6911 222.647 22.8402C222.376 22.986 222.16 23.1899 222.001 23.4517C221.842 23.7102 221.762 24.0052 221.762 24.3366V29H220.276Z" fill="white"/>
</svg>
