<svg width="48" height="48" viewBox="0 0 48 48" fill="none" xmlns="http://www.w3.org/2000/svg">
<rect y="0.00012207" width="48" height="48" rx="24" fill="white"/>
<path d="M20.4658 32.8917C20.0791 32.8917 19.7676 32.5909 19.7676 32.215V16.3058C19.7676 15.9191 20.0791 15.6183 20.4658 15.6183C20.8525 15.6183 21.1641 15.9191 21.1641 16.3058V32.215C21.1641 32.5909 20.8525 32.8917 20.4658 32.8917ZM27.5342 32.8917C27.1475 32.8917 26.8359 32.5909 26.8359 32.215V16.3058C26.8359 15.9191 27.1475 15.6183 27.5342 15.6183C27.9209 15.6183 28.2324 15.9191 28.2324 16.3058V32.215C28.2324 32.5909 27.9209 32.8917 27.5342 32.8917Z" fill="black"/>
</svg>
