<svg width="48" height="40" viewBox="0 0 48 40" fill="none" xmlns="http://www.w3.org/2000/svg">
<path d="M7.1543 38.1709C6.6237 38.1709 6.16146 38.0879 5.76758 37.9219C5.3737 37.7526 5.06283 37.5182 4.83496 37.2188C4.6071 36.9193 4.47689 36.5726 4.44434 36.1787L4.43945 36.1152H5.51855L5.52344 36.1689C5.54622 36.3805 5.62923 36.5645 5.77246 36.7207C5.91895 36.877 6.11426 36.999 6.3584 37.0869C6.60579 37.1748 6.88737 37.2188 7.20312 37.2188C7.49935 37.2188 7.76302 37.1715 7.99414 37.0771C8.22526 36.9827 8.40592 36.8525 8.53613 36.6865C8.6696 36.5205 8.73633 36.3301 8.73633 36.1152V36.1104C8.73633 35.8402 8.63379 35.6156 8.42871 35.4365C8.22363 35.2575 7.88835 35.1175 7.42285 35.0166L6.65137 34.8555C5.93848 34.7025 5.41927 34.46 5.09375 34.1279C4.76823 33.7926 4.60547 33.3646 4.60547 32.8438V32.8389C4.60872 32.432 4.71777 32.0739 4.93262 31.7646C5.15072 31.4554 5.45182 31.2145 5.83594 31.042C6.22005 30.8695 6.66113 30.7832 7.15918 30.7832C7.65723 30.7832 8.0918 30.8695 8.46289 31.042C8.83724 31.2113 9.13184 31.4424 9.34668 31.7354C9.56478 32.0283 9.68685 32.3587 9.71289 32.7266L9.71777 32.79H8.64844L8.63867 32.7266C8.60938 32.5345 8.52962 32.3636 8.39941 32.2139C8.27246 32.0641 8.10156 31.9469 7.88672 31.8623C7.67513 31.7744 7.42773 31.7321 7.14453 31.7354C6.87109 31.7354 6.62695 31.7777 6.41211 31.8623C6.19727 31.9437 6.02637 32.0625 5.89941 32.2188C5.77572 32.375 5.71387 32.5638 5.71387 32.7852V32.79C5.71387 33.0505 5.81315 33.2686 6.01172 33.4443C6.21354 33.6169 6.54069 33.752 6.99316 33.8496L7.76465 34.0205C8.50358 34.1768 9.03418 34.4111 9.35645 34.7236C9.68197 35.0361 9.84473 35.4528 9.84473 35.9736V35.9785C9.84473 36.4277 9.73405 36.8167 9.5127 37.1455C9.2946 37.471 8.98372 37.7233 8.58008 37.9023C8.17643 38.0814 7.70117 38.1709 7.1543 38.1709ZM13.3896 38.1025C12.8721 38.1025 12.4277 37.9919 12.0566 37.7705C11.6855 37.5459 11.3991 37.2285 11.1973 36.8184C10.9987 36.4082 10.8994 35.9232 10.8994 35.3633V35.3584C10.8994 34.805 10.9987 34.3216 11.1973 33.9082C11.3991 33.4948 11.6823 33.1725 12.0469 32.9414C12.4147 32.7103 12.8444 32.5947 13.3359 32.5947C13.8307 32.5947 14.2555 32.7054 14.6104 32.9268C14.9684 33.1481 15.2435 33.459 15.4355 33.8594C15.6276 34.2565 15.7236 34.722 15.7236 35.2559V35.627H11.4365V34.8701H15.1963L14.6885 35.5732V35.1484C14.6885 34.7708 14.6299 34.4583 14.5127 34.2109C14.3988 33.9603 14.2409 33.7731 14.0391 33.6494C13.8372 33.5257 13.6045 33.4639 13.3408 33.4639C13.0771 33.4639 12.8411 33.529 12.6328 33.6592C12.4277 33.7861 12.265 33.9749 12.1445 34.2256C12.0273 34.4762 11.9688 34.7839 11.9688 35.1484V35.5732C11.9688 35.9215 12.0273 36.2194 12.1445 36.4668C12.2617 36.7142 12.4277 36.903 12.6426 37.0332C12.8607 37.1634 13.1178 37.2285 13.4141 37.2285C13.6419 37.2285 13.8372 37.1976 14 37.1357C14.166 37.0706 14.3011 36.9909 14.4053 36.8965C14.5127 36.8021 14.5859 36.7093 14.625 36.6182L14.6445 36.5791H15.6699L15.6602 36.623C15.6146 36.7988 15.5348 36.9746 15.4209 37.1504C15.307 37.3229 15.1556 37.4808 14.9668 37.624C14.7812 37.7673 14.5566 37.8828 14.293 37.9707C14.0326 38.0586 13.7314 38.1025 13.3896 38.1025ZM18.9854 38.0342C18.4059 38.0342 17.986 37.9235 17.7256 37.7021C17.4684 37.4775 17.3398 37.1113 17.3398 36.6035V33.5322H16.5098V32.6973H17.3398V31.3594H18.4238V32.6973H19.5615V33.5322H18.4238V36.3447C18.4238 36.6312 18.4808 36.8379 18.5947 36.9648C18.7087 37.0885 18.8975 37.1504 19.1611 37.1504C19.2393 37.1504 19.306 37.1488 19.3613 37.1455C19.4199 37.1423 19.4867 37.1374 19.5615 37.1309V37.9805C19.4769 37.9935 19.3857 38.0049 19.2881 38.0146C19.1904 38.0277 19.0895 38.0342 18.9854 38.0342ZM22.8232 38.0342C22.2438 38.0342 21.8239 37.9235 21.5635 37.7021C21.3063 37.4775 21.1777 37.1113 21.1777 36.6035V33.5322H20.3477V32.6973H21.1777V31.3594H22.2617V32.6973H23.3994V33.5322H22.2617V36.3447C22.2617 36.6312 22.3187 36.8379 22.4326 36.9648C22.5465 37.0885 22.7354 37.1504 22.999 37.1504C23.0771 37.1504 23.1439 37.1488 23.1992 37.1455C23.2578 37.1423 23.3245 37.1374 23.3994 37.1309V37.9805C23.3148 37.9935 23.2236 38.0049 23.126 38.0146C23.0283 38.0277 22.9274 38.0342 22.8232 38.0342ZM24.6543 38V32.6973H25.7188V38H24.6543ZM25.1914 31.75C25.0091 31.75 24.8529 31.6849 24.7227 31.5547C24.5924 31.4245 24.5273 31.2682 24.5273 31.0859C24.5273 30.9036 24.5924 30.749 24.7227 30.6221C24.8529 30.4919 25.0091 30.4268 25.1914 30.4268C25.3737 30.4268 25.5299 30.4919 25.6602 30.6221C25.7904 30.749 25.8555 30.9036 25.8555 31.0859C25.8555 31.2682 25.7904 31.4245 25.6602 31.5547C25.5299 31.6849 25.3737 31.75 25.1914 31.75ZM27.2568 38V32.6973H28.3164V33.498H28.3994C28.5296 33.2148 28.7217 32.9935 28.9756 32.834C29.2295 32.6745 29.5501 32.5947 29.9375 32.5947C30.5332 32.5947 30.9889 32.7656 31.3047 33.1074C31.6204 33.4492 31.7783 33.9359 31.7783 34.5674V38H30.7139V34.8164C30.7139 34.3737 30.6211 34.0449 30.4355 33.8301C30.2533 33.612 29.9668 33.5029 29.5762 33.5029C29.319 33.5029 29.096 33.5599 28.9072 33.6738C28.7184 33.7845 28.5719 33.944 28.4678 34.1523C28.3669 34.3574 28.3164 34.6032 28.3164 34.8896V38H27.2568ZM35.4941 39.8701C35.0449 39.8701 34.6543 39.8083 34.3223 39.6846C33.9935 39.5609 33.7331 39.3883 33.541 39.167C33.349 38.9456 33.2318 38.6885 33.1895 38.3955L33.1943 38.3857H34.2686L34.2734 38.3955C34.319 38.5778 34.4476 38.7275 34.6592 38.8447C34.8708 38.9619 35.154 39.0205 35.5088 39.0205C35.945 39.0205 36.2852 38.9212 36.5293 38.7227C36.7767 38.5241 36.9004 38.2458 36.9004 37.8877V36.8477H36.8174C36.7132 37.0365 36.5798 37.1992 36.417 37.3359C36.2542 37.4694 36.0687 37.5703 35.8604 37.6387C35.652 37.707 35.4258 37.7412 35.1816 37.7412C34.7324 37.7412 34.3418 37.6338 34.0098 37.4189C33.681 37.2008 33.4271 36.9014 33.248 36.5205C33.0723 36.1364 32.9844 35.6953 32.9844 35.1973V35.1875C32.9844 34.6829 33.0739 34.237 33.2529 33.8496C33.432 33.459 33.6875 33.1546 34.0195 32.9365C34.3516 32.7152 34.7471 32.6045 35.2061 32.6045C35.4535 32.6045 35.6797 32.6436 35.8848 32.7217C36.0931 32.7998 36.277 32.9105 36.4365 33.0537C36.596 33.1969 36.7279 33.3678 36.832 33.5664H36.8955V32.6973H37.9551V37.8926C37.9551 38.293 37.8542 38.6413 37.6523 38.9375C37.4538 39.2337 37.1706 39.4632 36.8027 39.626C36.4349 39.7887 35.9987 39.8701 35.4941 39.8701ZM35.4795 36.8623C35.779 36.8623 36.0361 36.7923 36.251 36.6523C36.4658 36.5091 36.6302 36.3122 36.7441 36.0615C36.8613 35.8109 36.9199 35.5212 36.9199 35.1924V35.1826C36.9199 34.8571 36.8613 34.5674 36.7441 34.3135C36.6302 34.0596 36.4658 33.861 36.251 33.7178C36.0361 33.5745 35.779 33.5029 35.4795 33.5029C35.18 33.5029 34.9245 33.5745 34.7129 33.7178C34.5046 33.861 34.3451 34.0596 34.2344 34.3135C34.1237 34.5641 34.0684 34.8538 34.0684 35.1826V35.1924C34.0684 35.5212 34.1237 35.8109 34.2344 36.0615C34.3451 36.3122 34.5046 36.5091 34.7129 36.6523C34.9245 36.7923 35.18 36.8623 35.4795 36.8623ZM41.4121 38.1025C40.9857 38.1025 40.6146 38.0407 40.2988 37.917C39.9831 37.79 39.7324 37.6159 39.5469 37.3945C39.3613 37.1699 39.2523 36.9095 39.2197 36.6133V36.6035H40.2842V36.6133C40.3525 36.8118 40.4827 36.973 40.6748 37.0967C40.8669 37.2204 41.1208 37.2822 41.4365 37.2822C41.6546 37.2822 41.8451 37.2513 42.0078 37.1895C42.1738 37.1276 42.304 37.0413 42.3984 36.9307C42.4928 36.82 42.54 36.693 42.54 36.5498V36.54C42.54 36.374 42.4733 36.234 42.3398 36.1201C42.2064 36.0062 41.9867 35.9134 41.6807 35.8418L40.8311 35.6465C40.333 35.5326 39.9635 35.3584 39.7227 35.124C39.485 34.8864 39.3662 34.5739 39.3662 34.1865V34.1816C39.3662 33.8724 39.4541 33.599 39.6299 33.3613C39.8057 33.1204 40.0482 32.9333 40.3574 32.7998C40.6699 32.6631 41.0264 32.5947 41.4268 32.5947C41.8304 32.5947 42.182 32.6582 42.4814 32.7852C42.7842 32.9089 43.0234 33.0814 43.1992 33.3027C43.375 33.5208 43.4792 33.7747 43.5117 34.0645V34.0693H42.4961V34.0596C42.4473 33.874 42.3301 33.7194 42.1445 33.5957C41.9622 33.472 41.7214 33.4102 41.4219 33.4102C41.2298 33.4102 41.0589 33.4411 40.9092 33.5029C40.7594 33.5615 40.6406 33.6445 40.5527 33.752C40.4681 33.8561 40.4258 33.9798 40.4258 34.123V34.1328C40.4258 34.2988 40.4909 34.4355 40.6211 34.543C40.7513 34.6504 40.9645 34.7399 41.2607 34.8115L42.1055 35.002C42.6133 35.1224 42.9909 35.2965 43.2383 35.5244C43.4889 35.7523 43.6143 36.0583 43.6143 36.4424V36.4521C43.6143 36.7777 43.5182 37.0658 43.3262 37.3164C43.1341 37.5638 42.8721 37.7575 42.54 37.8975C42.2113 38.0342 41.8353 38.1025 41.4121 38.1025Z" fill="white"/>
<path d="M23.1123 19.9092C22.4883 19.9092 22.04 19.54 21.8906 18.9336L21.5039 17.2373L21.0732 17.0879L19.6055 18.002C19.0781 18.3447 18.4893 18.2656 18.0498 17.8262L16.8193 16.5957C16.3711 16.1562 16.3008 15.5674 16.6348 15.04L17.5576 13.5723L17.4082 13.1592L15.7207 12.7725C15.1143 12.623 14.7451 12.166 14.7451 11.5508V9.80176C14.7451 9.18652 15.1055 8.72949 15.7207 8.58008L17.3906 8.17578L17.5576 7.7627L16.6348 6.29492C16.292 5.76758 16.3711 5.1875 16.8105 4.73926L18.0498 3.5C18.4805 3.06934 19.0605 2.99023 19.5967 3.32422L21.0645 4.23828L21.5039 4.08008L21.8906 2.38379C22.04 1.76855 22.4883 1.4082 23.1123 1.4082H24.8877C25.5029 1.4082 25.96 1.76855 26.1094 2.38379L26.4961 4.08008L26.9268 4.23828L28.3945 3.32422C28.9307 2.99023 29.5107 3.06934 29.9502 3.5L31.1807 4.73926C31.6289 5.1875 31.6992 5.76758 31.3652 6.29492L30.4336 7.7627L30.6006 8.17578L32.2793 8.58008C32.8857 8.72949 33.2549 9.18652 33.2549 9.80176V11.5508C33.2549 12.166 32.8857 12.623 32.2793 12.7725L30.583 13.1592L30.4336 13.5723L31.3564 15.04C31.6904 15.5674 31.6201 16.1562 31.1719 16.5957L29.9414 17.8262C29.502 18.2656 28.9131 18.3447 28.3857 18.002L26.918 17.0879L26.4961 17.2373L26.1094 18.9336C25.96 19.54 25.5029 19.9092 24.8877 19.9092H23.1123ZM23.2266 18.8457H24.7734C24.9844 18.8457 25.0986 18.7578 25.1338 18.5557L25.6436 16.4199C26.1357 16.2881 26.584 16.1035 26.9355 15.9014L28.7988 17.0615C28.9658 17.167 29.124 17.1494 29.2822 17L30.3545 15.9277C30.4951 15.7783 30.5127 15.6289 30.3984 15.4531L29.2471 13.5898C29.4316 13.2471 29.625 12.79 29.7568 12.2979L31.9014 11.7969C32.0947 11.7617 32.1914 11.6475 32.1914 11.4365V9.90723C32.1914 9.69629 32.1035 9.58203 31.9014 9.53809L29.7656 9.03711C29.6338 8.52734 29.4141 8.06152 29.2559 7.73633L30.4072 5.88184C30.5215 5.69727 30.5127 5.54785 30.3633 5.39844L29.291 4.33496C29.1328 4.18555 28.9834 4.16797 28.7988 4.27344L26.9443 5.4248C26.5752 5.24023 26.1357 5.03809 25.6436 4.91504L25.1338 2.76172C25.0986 2.55957 24.9844 2.47168 24.7734 2.47168H23.2266C23.0156 2.47168 22.9014 2.56836 22.8662 2.76172L22.3652 4.89746C21.8906 5.03809 21.3984 5.23145 21.0381 5.41602L19.1924 4.27344C19.0078 4.16797 18.8584 4.18555 18.7002 4.33496L17.6279 5.39844C17.4785 5.54785 17.4697 5.69727 17.584 5.88184L18.7354 7.73633C18.5859 8.06152 18.3662 8.53613 18.2344 9.03711L16.0986 9.53809C15.8965 9.58203 15.7998 9.69629 15.7998 9.90723V11.4365C15.7998 11.6475 15.9053 11.7617 16.0986 11.7969L18.2432 12.2979C18.3662 12.7812 18.5771 13.2471 18.7441 13.5898L17.5928 15.4531C17.4785 15.6289 17.4961 15.7783 17.6455 15.9277L18.709 17C18.8672 17.1494 19.0254 17.167 19.1924 17.0615L21.0557 15.9014C21.416 16.1035 21.873 16.2881 22.3564 16.4199L22.8662 18.5557C22.9014 18.749 23.0156 18.8457 23.2266 18.8457ZM24 14.0205C22.1631 14.0205 20.6426 12.5 20.6426 10.6543C20.6426 8.82617 22.1631 7.31445 24 7.31445C25.8457 7.31445 27.3574 8.82617 27.3574 10.6543C27.3574 12.5 25.8457 14.0205 24 14.0205ZM24 12.9658C25.248 12.9658 26.2939 11.9111 26.2939 10.6543C26.2939 9.40625 25.248 8.36035 24 8.36035C22.7432 8.36035 21.6973 9.40625 21.6973 10.6543C21.6973 11.9199 22.7432 12.9658 24 12.9658Z" fill="white"/>
</svg>
