<svg width="361" height="48" viewBox="0 0 361 48" fill="none" xmlns="http://www.w3.org/2000/svg">
<path d="M0 19.2C0 12.4794 0 9.11905 1.30792 6.55211C2.4584 4.29417 4.29417 2.4584 6.55211 1.30792C9.11905 0 12.4794 0 19.2 0H341.8C348.521 0 351.881 0 354.448 1.30792C356.706 2.4584 358.542 4.29417 359.692 6.55211C361 9.11905 361 12.4794 361 19.2V28.8C361 35.5206 361 38.8809 359.692 41.4479C358.542 43.7058 356.706 45.5416 354.448 46.6921C351.881 48 348.521 48 341.8 48H19.2C12.4794 48 9.11905 48 6.55211 46.6921C4.29417 45.5416 2.4584 43.7058 1.30792 41.4479C0 38.8809 0 35.5206 0 28.8V19.2Z" fill="white" fill-opacity="0.16"/>
<path d="M149.14 22.0348C149.044 21.7332 148.915 21.4631 148.752 21.2244C148.593 20.9825 148.403 20.777 148.181 20.608C147.959 20.4356 147.705 20.3047 147.42 20.2152C147.138 20.1257 146.828 20.081 146.49 20.081C145.917 20.081 145.4 20.2285 144.939 20.5234C144.478 20.8184 144.114 21.2509 143.845 21.821C143.58 22.3878 143.448 23.0821 143.448 23.9041C143.448 24.7294 143.582 25.4271 143.85 25.9972C144.119 26.5672 144.487 26.9998 144.954 27.2947C145.421 27.5897 145.953 27.7372 146.55 27.7372C147.103 27.7372 147.586 27.6245 147.997 27.3991C148.411 27.1738 148.731 26.8556 148.956 26.4446C149.185 26.0303 149.299 25.5431 149.299 24.983L149.697 25.0575H146.784V23.7898H150.786V24.9482C150.786 25.8033 150.603 26.5457 150.239 27.1754C149.878 27.8018 149.377 28.2857 148.737 28.6271C148.101 28.9685 147.372 29.1392 146.55 29.1392C145.628 29.1392 144.82 28.9271 144.124 28.5028C143.431 28.0786 142.891 27.477 142.503 26.6982C142.115 25.916 141.921 24.9879 141.921 23.9141C141.921 23.102 142.034 22.3729 142.259 21.7266C142.485 21.0803 142.801 20.5317 143.209 20.081C143.62 19.6269 144.102 19.2805 144.656 19.0419C145.213 18.8 145.821 18.679 146.48 18.679C147.03 18.679 147.543 18.7602 148.017 18.9226C148.494 19.085 148.918 19.3153 149.289 19.6136C149.664 19.9119 149.974 20.2666 150.219 20.6776C150.464 21.0852 150.63 21.5376 150.716 22.0348H149.14ZM156.008 29.1541C155.255 29.1541 154.607 28.9934 154.064 28.6719C153.524 28.3471 153.106 27.8913 152.811 27.3047C152.519 26.7147 152.373 26.0237 152.373 25.2315C152.373 24.4493 152.519 23.7599 152.811 23.1634C153.106 22.5668 153.517 22.1011 154.044 21.7663C154.574 21.4316 155.194 21.2642 155.903 21.2642C156.334 21.2642 156.752 21.3355 157.156 21.478C157.56 21.6205 157.923 21.8442 158.245 22.1491C158.566 22.4541 158.82 22.8501 159.006 23.3374C159.191 23.8213 159.284 24.4096 159.284 25.1023V25.6293H153.214V24.5156H157.827C157.827 24.1245 157.748 23.7782 157.589 23.4766C157.43 23.1716 157.206 22.9313 156.917 22.7557C156.632 22.58 156.298 22.4922 155.913 22.4922C155.496 22.4922 155.131 22.5949 154.819 22.8004C154.511 23.0026 154.273 23.2678 154.104 23.5959C153.938 23.9207 153.855 24.2737 153.855 24.6548V25.5249C153.855 26.0353 153.944 26.4695 154.123 26.8274C154.306 27.1854 154.559 27.4588 154.884 27.6477C155.209 27.8333 155.588 27.9261 156.023 27.9261C156.304 27.9261 156.561 27.8864 156.793 27.8068C157.025 27.724 157.226 27.6013 157.395 27.4389C157.564 27.2765 157.693 27.076 157.783 26.8374L159.189 27.0909C159.077 27.5052 158.875 27.8681 158.583 28.1797C158.295 28.4879 157.932 28.7282 157.494 28.9006C157.06 29.0696 156.564 29.1541 156.008 29.1541ZM164.598 21.3636V22.5568H160.427V21.3636H164.598ZM161.545 19.5341H163.032V26.7578C163.032 27.0462 163.075 27.2633 163.161 27.4091C163.247 27.5516 163.358 27.6494 163.494 27.7024C163.633 27.7521 163.784 27.777 163.947 27.777C164.066 27.777 164.17 27.7687 164.26 27.7521C164.349 27.7356 164.419 27.7223 164.469 27.7124L164.737 28.9403C164.651 28.9735 164.528 29.0066 164.369 29.0398C164.21 29.0762 164.011 29.0961 163.773 29.0994C163.382 29.1061 163.017 29.0365 162.679 28.8906C162.341 28.7448 162.067 28.5194 161.859 28.2145C161.65 27.9096 161.545 27.5268 161.545 27.0661V19.5341ZM175.82 21.4929C175.767 21.0223 175.548 20.6577 175.164 20.3991C174.779 20.1373 174.295 20.0064 173.712 20.0064C173.294 20.0064 172.933 20.0727 172.628 20.2053C172.323 20.3345 172.086 20.5135 171.917 20.7422C171.752 20.9676 171.669 21.2244 171.669 21.5128C171.669 21.7547 171.725 21.9635 171.838 22.1392C171.954 22.3149 172.104 22.4624 172.29 22.5817C172.479 22.6977 172.681 22.7955 172.897 22.875C173.112 22.9512 173.319 23.0142 173.518 23.0639L174.512 23.3224C174.837 23.402 175.17 23.5097 175.512 23.6456C175.853 23.7815 176.17 23.9605 176.461 24.1825C176.753 24.4046 176.988 24.6797 177.167 25.0078C177.35 25.3359 177.441 25.7287 177.441 26.1861C177.441 26.7628 177.292 27.2749 176.993 27.7223C176.698 28.1697 176.269 28.5227 175.706 28.7812C175.145 29.0398 174.468 29.169 173.672 29.169C172.91 29.169 172.25 29.0481 171.694 28.8061C171.137 28.5642 170.701 28.2211 170.386 27.777C170.071 27.3295 169.897 26.7992 169.864 26.1861H171.405C171.435 26.554 171.554 26.8606 171.763 27.1058C171.975 27.3478 172.245 27.5284 172.573 27.6477C172.905 27.7637 173.268 27.8217 173.662 27.8217C174.096 27.8217 174.483 27.7538 174.821 27.6179C175.162 27.4787 175.43 27.2865 175.626 27.0412C175.822 26.7926 175.919 26.5026 175.919 26.1712C175.919 25.8696 175.833 25.6226 175.661 25.4304C175.492 25.2382 175.261 25.0791 174.97 24.9531C174.681 24.8272 174.355 24.7161 173.99 24.62L172.787 24.2919C171.972 24.0698 171.326 23.7434 170.848 23.3125C170.374 22.8816 170.137 22.3116 170.137 21.6023C170.137 21.0156 170.296 20.5036 170.615 20.0661C170.933 19.6286 171.364 19.2888 171.907 19.0469C172.451 18.8016 173.064 18.679 173.747 18.679C174.436 18.679 175.044 18.8 175.571 19.0419C176.102 19.2839 176.519 19.617 176.824 20.0412C177.129 20.4621 177.288 20.946 177.301 21.4929H175.82ZM182.822 21.3636V22.5568H178.651V21.3636H182.822ZM179.769 19.5341H181.256V26.7578C181.256 27.0462 181.299 27.2633 181.385 27.4091C181.471 27.5516 181.582 27.6494 181.718 27.7024C181.857 27.7521 182.008 27.777 182.17 27.777C182.29 27.777 182.394 27.7687 182.484 27.7521C182.573 27.7356 182.643 27.7223 182.692 27.7124L182.961 28.9403C182.875 28.9735 182.752 29.0066 182.593 29.0398C182.434 29.0762 182.235 29.0961 181.996 29.0994C181.605 29.1061 181.241 29.0365 180.903 28.8906C180.565 28.7448 180.291 28.5194 180.082 28.2145C179.874 27.9096 179.769 27.5268 179.769 27.0661V19.5341ZM186.788 29.169C186.304 29.169 185.867 29.0795 185.476 28.9006C185.085 28.7183 184.775 28.4548 184.546 28.1101C184.321 27.7654 184.208 27.3428 184.208 26.8423C184.208 26.4115 184.291 26.0568 184.457 25.7784C184.622 25.5 184.846 25.2796 185.128 25.1172C185.41 24.9548 185.724 24.8321 186.072 24.7493C186.42 24.6664 186.775 24.6035 187.136 24.5604C187.594 24.5073 187.965 24.4643 188.25 24.4311C188.535 24.3946 188.742 24.3366 188.871 24.2571C189.001 24.1776 189.065 24.0483 189.065 23.8693V23.8345C189.065 23.4003 188.943 23.0639 188.697 22.8253C188.456 22.5866 188.094 22.4673 187.614 22.4673C187.113 22.4673 186.719 22.5784 186.43 22.8004C186.145 23.0192 185.948 23.2628 185.839 23.5312L184.442 23.2131C184.608 22.7491 184.849 22.3745 185.168 22.0895C185.489 21.8011 185.859 21.5923 186.276 21.4631C186.694 21.3305 187.133 21.2642 187.594 21.2642C187.899 21.2642 188.222 21.3007 188.563 21.3736C188.908 21.4432 189.229 21.5724 189.528 21.7614C189.829 21.9503 190.076 22.2204 190.268 22.5717C190.461 22.9197 190.557 23.3722 190.557 23.929V29H189.105V27.956H189.045C188.949 28.1482 188.805 28.3371 188.613 28.5227C188.421 28.7083 188.174 28.8625 187.872 28.9851C187.571 29.1077 187.209 29.169 186.788 29.169ZM187.112 27.9759C187.523 27.9759 187.874 27.8946 188.166 27.7322C188.46 27.5698 188.684 27.3577 188.837 27.0959C188.992 26.8307 189.07 26.5473 189.07 26.2457V25.2614C189.017 25.3144 188.915 25.3641 188.762 25.4105C188.613 25.4536 188.442 25.4917 188.25 25.5249C188.058 25.5547 187.871 25.5829 187.688 25.6094C187.506 25.6326 187.353 25.6525 187.231 25.669C186.943 25.7055 186.679 25.7668 186.44 25.853C186.205 25.9392 186.016 26.0634 185.874 26.2259C185.734 26.3849 185.665 26.5971 185.665 26.8622C185.665 27.2301 185.801 27.5085 186.072 27.6974C186.344 27.883 186.691 27.9759 187.112 27.9759ZM192.637 29V21.3636H194.074V22.5767H194.153C194.292 22.1657 194.538 21.8426 194.889 21.6072C195.244 21.3686 195.645 21.2493 196.092 21.2493C196.185 21.2493 196.294 21.2526 196.42 21.2592C196.549 21.2659 196.651 21.2741 196.723 21.2841V22.706C196.664 22.6894 196.558 22.6712 196.405 22.6513C196.253 22.6281 196.1 22.6165 195.948 22.6165C195.597 22.6165 195.283 22.6911 195.008 22.8402C194.736 22.986 194.521 23.1899 194.362 23.4517C194.203 23.7102 194.123 24.0052 194.123 24.3366V29H192.637ZM202.126 21.3636V22.5568H197.954V21.3636H202.126ZM199.073 19.5341H200.56V26.7578C200.56 27.0462 200.603 27.2633 200.689 27.4091C200.775 27.5516 200.886 27.6494 201.022 27.7024C201.161 27.7521 201.312 27.777 201.474 27.777C201.594 27.777 201.698 27.7687 201.788 27.7521C201.877 27.7356 201.947 27.7223 201.996 27.7124L202.265 28.9403C202.179 28.9735 202.056 29.0066 201.897 29.0398C201.738 29.0762 201.539 29.0961 201.3 29.0994C200.909 29.1061 200.545 29.0365 200.207 28.8906C199.869 28.7448 199.595 28.5194 199.386 28.2145C199.177 27.9096 199.073 27.5268 199.073 27.0661V19.5341ZM207.079 29.1541C206.327 29.1541 205.679 28.9934 205.135 28.6719C204.595 28.3471 204.177 27.8913 203.882 27.3047C203.591 26.7147 203.445 26.0237 203.445 25.2315C203.445 24.4493 203.591 23.7599 203.882 23.1634C204.177 22.5668 204.588 22.1011 205.115 21.7663C205.646 21.4316 206.265 21.2642 206.975 21.2642C207.406 21.2642 207.823 21.3355 208.228 21.478C208.632 21.6205 208.995 21.8442 209.316 22.1491C209.638 22.4541 209.891 22.8501 210.077 23.3374C210.263 23.8213 210.355 24.4096 210.355 25.1023V25.6293H204.285V24.5156H208.899C208.899 24.1245 208.819 23.7782 208.66 23.4766C208.501 23.1716 208.277 22.9313 207.989 22.7557C207.704 22.58 207.369 22.4922 206.985 22.4922C206.567 22.4922 206.202 22.5949 205.891 22.8004C205.583 23.0026 205.344 23.2678 205.175 23.5959C205.009 23.9207 204.926 24.2737 204.926 24.6548V25.5249C204.926 26.0353 205.016 26.4695 205.195 26.8274C205.377 27.1854 205.631 27.4588 205.956 27.6477C206.28 27.8333 206.66 27.9261 207.094 27.9261C207.376 27.9261 207.633 27.8864 207.865 27.8068C208.097 27.724 208.297 27.6013 208.466 27.4389C208.635 27.2765 208.765 27.076 208.854 26.8374L210.261 27.0909C210.148 27.5052 209.946 27.8681 209.654 28.1797C209.366 28.4879 209.003 28.7282 208.566 28.9006C208.131 29.0696 207.636 29.1541 207.079 29.1541ZM214.963 29.1491C214.347 29.1491 213.797 28.9917 213.313 28.6768C212.832 28.3587 212.454 27.9062 212.179 27.3196C211.908 26.7296 211.772 26.022 211.772 25.1967C211.772 24.3714 211.909 23.6655 212.184 23.0788C212.463 22.4922 212.844 22.0431 213.328 21.7315C213.812 21.42 214.36 21.2642 214.973 21.2642C215.447 21.2642 215.828 21.3438 216.117 21.5028C216.408 21.6586 216.634 21.8409 216.793 22.0497C216.955 22.2585 217.081 22.4425 217.171 22.6016H217.26V18.8182H218.747V29H217.295V27.8118H217.171C217.081 27.9742 216.952 28.1598 216.783 28.3686C216.617 28.5774 216.389 28.7597 216.097 28.9155C215.805 29.0713 215.427 29.1491 214.963 29.1491ZM215.292 27.8814C215.719 27.8814 216.08 27.7687 216.375 27.5433C216.674 27.3146 216.899 26.9981 217.051 26.5938C217.207 26.1894 217.285 25.7187 217.285 25.1818C217.285 24.6515 217.209 24.1875 217.056 23.7898C216.904 23.392 216.68 23.0821 216.385 22.8601C216.09 22.638 215.726 22.527 215.292 22.527C214.844 22.527 214.471 22.643 214.173 22.875C213.875 23.107 213.649 23.4235 213.497 23.8246C213.348 24.2256 213.273 24.678 213.273 25.1818C213.273 25.6922 213.349 26.1513 213.502 26.5589C213.654 26.9666 213.88 27.2898 214.178 27.5284C214.48 27.7637 214.851 27.8814 215.292 27.8814Z" fill="white"/>
</svg>
