<svg width="193" height="193" viewBox="0 0 193 193" fill="none" xmlns="http://www.w3.org/2000/svg">
<rect x="0.5" y="0.5" width="192" height="192" rx="32" fill="white" fill-opacity="0.08"/>
<g clip-path="url(#clip0_1375_1182)">
<mask id="mask0_1375_1182" style="mask-type:luminance" maskUnits="userSpaceOnUse" x="21" y="72" width="151" height="49">
<path d="M171.785 72.5H21V120.5H171.785V72.5Z" fill="white"/>
</mask>
<g mask="url(#mask0_1375_1182)">
<path fill-rule="evenodd" clip-rule="evenodd" d="M171.761 102.255C171.761 112.304 163.615 120.45 153.566 120.45C143.517 120.45 135.371 112.304 135.371 102.255C135.371 92.2066 143.517 84.0605 153.566 84.0605C163.615 84.0605 171.761 92.2066 171.761 102.255ZM164.296 102.255C164.296 108.186 159.496 112.986 153.565 112.986C147.634 112.986 142.834 108.186 142.834 102.255C142.834 96.3244 147.634 91.5244 153.565 91.5244C159.496 91.5244 164.296 96.3244 164.296 102.255Z" fill="white"/>
<path fill-rule="evenodd" clip-rule="evenodd" d="M133.184 102.255C133.184 112.304 125.038 120.45 114.99 120.45C104.941 120.45 96.7949 112.304 96.7949 102.255C96.7949 92.2066 104.941 84.0605 114.99 84.0605C125.038 84.0605 133.184 92.2066 133.184 102.255ZM125.72 102.255C125.72 108.186 120.92 112.986 114.989 112.986C109.058 112.986 104.258 108.186 104.258 102.255C104.258 96.3244 109.058 91.5244 114.989 91.5244C120.92 91.5244 125.72 96.3244 125.72 102.255Z" fill="white"/>
<path fill-rule="evenodd" clip-rule="evenodd" d="M95.1102 102.255V102.104C95.1354 102.054 95.1354 101.979 95.1354 101.928V76.1189C95.1354 74.1335 93.5019 72.5 91.5165 72.5C91.0407 72.498 90.5692 72.5903 90.1293 72.7714C89.6893 72.9526 89.2896 73.2191 88.9531 73.5555C88.6167 73.892 88.3502 74.2917 88.1691 74.7317C87.9879 75.1716 87.8957 75.6431 87.8977 76.1189V87.7294C84.8317 85.4424 81.0369 84.0602 76.9155 84.0602C66.8631 84.0602 58.7207 92.2027 58.7207 102.255C58.7207 112.307 66.8631 120.45 76.9155 120.45C86.9678 120.45 95.1102 112.307 95.1102 102.255ZM87.6473 102.255C87.6473 108.182 82.8429 112.986 76.9164 112.986C70.9899 112.986 66.1855 108.182 66.1855 102.255C66.1855 96.3288 70.9899 91.5244 76.9164 91.5244C82.8429 91.5244 87.6473 96.3288 87.6473 102.255Z" fill="white"/>
<path fill-rule="evenodd" clip-rule="evenodd" d="M57.3895 102.204C57.3895 112.253 49.2435 120.399 39.1948 120.399C29.1461 120.399 21 112.253 21 102.204C21 92.1558 29.1461 84.0098 39.1948 84.0098C49.2435 84.0098 57.3895 92.1558 57.3895 102.204ZM49.7489 102.28C49.7489 108.206 44.9445 113.011 39.018 113.011C33.0915 113.011 28.2871 108.206 28.2871 102.28C28.2871 96.3532 33.0915 91.5488 39.018 91.5488C44.9445 91.5488 49.7489 96.3532 49.7489 102.28Z" fill="white"/>
</g>
</g>
<defs>
<clipPath id="clip0_1375_1182">
<rect width="151" height="48" fill="white" transform="translate(21 72.5)"/>
</clipPath>
</defs>
</svg>
