<svg width="48" height="40" viewBox="0 0 48 40" fill="none" xmlns="http://www.w3.org/2000/svg">
<path d="M5.0625 35.5928V34.6748H6.98633C7.46159 34.6748 7.82943 34.5527 8.08984 34.3086C8.35352 34.0612 8.48535 33.7194 8.48535 33.2832V33.2734C8.48535 32.8307 8.35352 32.4873 8.08984 32.2432C7.82943 31.999 7.46159 31.877 6.98633 31.877H5.0625V30.9541H7.25977C7.72201 30.9541 8.12728 31.0518 8.47559 31.2471C8.82715 31.4391 9.10221 31.7093 9.30078 32.0576C9.49935 32.4027 9.59863 32.8047 9.59863 33.2637V33.2734C9.59863 33.7324 9.49935 34.1377 9.30078 34.4893C9.10221 34.8376 8.82715 35.1094 8.47559 35.3047C8.12728 35.4967 7.72201 35.5928 7.25977 35.5928H5.0625ZM4.51562 38V30.9541H5.60938V38H4.51562ZM10.8877 38V32.6973H11.9473V33.498H12.0303C12.1247 33.2148 12.2907 32.9951 12.5283 32.8389C12.7692 32.6826 13.0654 32.6045 13.417 32.6045C13.5049 32.6045 13.5911 32.6094 13.6758 32.6191C13.7604 32.6289 13.8288 32.6403 13.8809 32.6533V33.6299C13.7865 33.6104 13.6921 33.5957 13.5977 33.5859C13.5065 33.5762 13.4105 33.5713 13.3096 33.5713C13.0394 33.5713 12.8018 33.6234 12.5967 33.7275C12.3949 33.8317 12.2354 33.9782 12.1182 34.167C12.0042 34.3525 11.9473 34.5739 11.9473 34.8311V38H10.8877ZM17.0107 38.1025C16.4932 38.1025 16.0456 37.9919 15.668 37.7705C15.2936 37.5492 15.0055 37.2334 14.8037 36.8232C14.6019 36.4098 14.501 35.9199 14.501 35.3535V35.3438C14.501 34.7741 14.6019 34.2842 14.8037 33.874C15.0088 33.4639 15.2985 33.1481 15.6729 32.9268C16.0505 32.7054 16.4964 32.5947 17.0107 32.5947C17.5283 32.5947 17.9743 32.7054 18.3486 32.9268C18.723 33.1449 19.0111 33.4606 19.2129 33.874C19.418 34.2842 19.5205 34.7741 19.5205 35.3438V35.3535C19.5205 35.9199 19.418 36.4098 19.2129 36.8232C19.0111 37.2334 18.723 37.5492 18.3486 37.7705C17.9775 37.9919 17.5316 38.1025 17.0107 38.1025ZM17.0107 37.2139C17.3135 37.2139 17.5706 37.1406 17.7822 36.9941C17.9938 36.8444 18.1549 36.6312 18.2656 36.3545C18.3763 36.0778 18.4316 35.7441 18.4316 35.3535V35.3438C18.4316 34.9499 18.3763 34.6146 18.2656 34.3379C18.1549 34.0612 17.9938 33.8496 17.7822 33.7031C17.5706 33.5534 17.3135 33.4785 17.0107 33.4785C16.708 33.4785 16.4508 33.5534 16.2393 33.7031C16.0277 33.8496 15.8649 34.0612 15.751 34.3379C15.6403 34.6146 15.585 34.9499 15.585 35.3438V35.3535C15.585 35.7441 15.6403 36.0778 15.751 36.3545C15.8649 36.6312 16.0277 36.8444 16.2393 36.9941C16.4508 37.1406 16.708 37.2139 17.0107 37.2139ZM20.1309 39.8164C20.0918 39.8164 20.0511 39.8148 20.0088 39.8115C19.9665 39.8115 19.929 39.8115 19.8965 39.8115V38.9424C19.9225 38.9424 19.9469 38.9424 19.9697 38.9424C19.9925 38.9424 20.0169 38.9424 20.043 38.9424C20.3164 38.9424 20.5101 38.8887 20.624 38.7812C20.738 38.6738 20.7949 38.4883 20.7949 38.2246V32.6973H21.8545V38.2295C21.8545 38.7731 21.7113 39.1735 21.4248 39.4307C21.1416 39.6878 20.7103 39.8164 20.1309 39.8164ZM21.3223 31.75C21.1432 31.75 20.987 31.6849 20.8535 31.5547C20.7233 31.4245 20.6582 31.2682 20.6582 31.0859C20.6582 30.9036 20.7233 30.749 20.8535 30.6221C20.987 30.4919 21.1432 30.4268 21.3223 30.4268C21.5078 30.4268 21.6657 30.4919 21.7959 30.6221C21.9261 30.749 21.9912 30.9036 21.9912 31.0859C21.9912 31.2682 21.9261 31.4245 21.7959 31.5547C21.6657 31.6849 21.5078 31.75 21.3223 31.75ZM25.624 38.1025C25.1064 38.1025 24.6621 37.9919 24.291 37.7705C23.9199 37.5459 23.6335 37.2285 23.4316 36.8184C23.2331 36.4082 23.1338 35.9232 23.1338 35.3633V35.3584C23.1338 34.805 23.2331 34.3216 23.4316 33.9082C23.6335 33.4948 23.9167 33.1725 24.2812 32.9414C24.6491 32.7103 25.0788 32.5947 25.5703 32.5947C26.0651 32.5947 26.4899 32.7054 26.8447 32.9268C27.2028 33.1481 27.4779 33.459 27.6699 33.8594C27.862 34.2565 27.958 34.722 27.958 35.2559V35.627H23.6709V34.8701H27.4307L26.9229 35.5732V35.1484C26.9229 34.7708 26.8643 34.4583 26.7471 34.2109C26.6331 33.9603 26.4753 33.7731 26.2734 33.6494C26.0716 33.5257 25.8389 33.4639 25.5752 33.4639C25.3115 33.4639 25.0755 33.529 24.8672 33.6592C24.6621 33.7861 24.4993 33.9749 24.3789 34.2256C24.2617 34.4762 24.2031 34.7839 24.2031 35.1484V35.5732C24.2031 35.9215 24.2617 36.2194 24.3789 36.4668C24.4961 36.7142 24.6621 36.903 24.877 37.0332C25.0951 37.1634 25.3522 37.2285 25.6484 37.2285C25.8763 37.2285 26.0716 37.1976 26.2344 37.1357C26.4004 37.0706 26.5355 36.9909 26.6396 36.8965C26.7471 36.8021 26.8203 36.7093 26.8594 36.6182L26.8789 36.5791H27.9043L27.8945 36.623C27.849 36.7988 27.7692 36.9746 27.6553 37.1504C27.5413 37.3229 27.39 37.4808 27.2012 37.624C27.0156 37.7673 26.791 37.8828 26.5273 37.9707C26.2669 38.0586 25.9658 38.1025 25.624 38.1025ZM31.4492 38.1025C30.9349 38.1025 30.4906 37.9919 30.1162 37.7705C29.7451 37.5459 29.4587 37.2269 29.2568 36.8135C29.055 36.4001 28.9541 35.9069 28.9541 35.334V35.3242C28.9541 34.7611 29.0534 34.276 29.252 33.8691C29.4538 33.4622 29.7402 33.1481 30.1113 32.9268C30.4857 32.7054 30.93 32.5947 31.4443 32.5947C31.8903 32.5947 32.2728 32.6729 32.5918 32.8291C32.9141 32.9821 33.1696 33.1937 33.3584 33.4639C33.5505 33.7308 33.6709 34.0352 33.7197 34.377L33.7246 34.4014H32.7041L32.6992 34.3916C32.6406 34.1312 32.5055 33.9147 32.2939 33.7422C32.0824 33.5664 31.8008 33.4785 31.4492 33.4785C31.1562 33.4785 30.904 33.5534 30.6924 33.7031C30.4808 33.8496 30.318 34.0612 30.2041 34.3379C30.0934 34.6146 30.0381 34.9434 30.0381 35.3242V35.334C30.0381 35.7246 30.0951 36.0599 30.209 36.3398C30.3229 36.6198 30.4857 36.8363 30.6973 36.9893C30.9089 37.139 31.1595 37.2139 31.4492 37.2139C31.7812 37.2139 32.0498 37.1406 32.2549 36.9941C32.4632 36.8477 32.6097 36.6312 32.6943 36.3447L32.7041 36.3203L33.7197 36.3154L33.71 36.3594C33.6481 36.7044 33.5228 37.0072 33.334 37.2676C33.1452 37.528 32.8929 37.7331 32.5771 37.8828C32.2646 38.0293 31.8887 38.1025 31.4492 38.1025ZM37.001 38.0342C36.4215 38.0342 36.0016 37.9235 35.7412 37.7021C35.484 37.4775 35.3555 37.1113 35.3555 36.6035V33.5322H34.5254V32.6973H35.3555V31.3594H36.4395V32.6973H37.5771V33.5322H36.4395V36.3447C36.4395 36.6312 36.4964 36.8379 36.6104 36.9648C36.7243 37.0885 36.9131 37.1504 37.1768 37.1504C37.2549 37.1504 37.3216 37.1488 37.377 37.1455C37.4355 37.1423 37.5023 37.1374 37.5771 37.1309V37.9805C37.4925 37.9935 37.4014 38.0049 37.3037 38.0146C37.2061 38.0277 37.1051 38.0342 37.001 38.0342ZM40.668 38.1025C40.2415 38.1025 39.8704 38.0407 39.5547 37.917C39.2389 37.79 38.9883 37.6159 38.8027 37.3945C38.6172 37.1699 38.5081 36.9095 38.4756 36.6133V36.6035H39.54V36.6133C39.6084 36.8118 39.7386 36.973 39.9307 37.0967C40.1227 37.2204 40.3766 37.2822 40.6924 37.2822C40.9105 37.2822 41.1009 37.2513 41.2637 37.1895C41.4297 37.1276 41.5599 37.0413 41.6543 36.9307C41.7487 36.82 41.7959 36.693 41.7959 36.5498V36.54C41.7959 36.374 41.7292 36.234 41.5957 36.1201C41.4622 36.0062 41.2425 35.9134 40.9365 35.8418L40.0869 35.6465C39.5889 35.5326 39.2194 35.3584 38.9785 35.124C38.7409 34.8864 38.6221 34.5739 38.6221 34.1865V34.1816C38.6221 33.8724 38.71 33.599 38.8857 33.3613C39.0615 33.1204 39.304 32.9333 39.6133 32.7998C39.9258 32.6631 40.2822 32.5947 40.6826 32.5947C41.0863 32.5947 41.4378 32.6582 41.7373 32.7852C42.04 32.9089 42.2793 33.0814 42.4551 33.3027C42.6309 33.5208 42.735 33.7747 42.7676 34.0645V34.0693H41.752V34.0596C41.7031 33.874 41.5859 33.7194 41.4004 33.5957C41.2181 33.472 40.9772 33.4102 40.6777 33.4102C40.4857 33.4102 40.3148 33.4411 40.165 33.5029C40.0153 33.5615 39.8965 33.6445 39.8086 33.752C39.724 33.8561 39.6816 33.9798 39.6816 34.123V34.1328C39.6816 34.2988 39.7467 34.4355 39.877 34.543C40.0072 34.6504 40.2204 34.7399 40.5166 34.8115L41.3613 35.002C41.8691 35.1224 42.2467 35.2965 42.4941 35.5244C42.7448 35.7523 42.8701 36.0583 42.8701 36.4424V36.4521C42.8701 36.7777 42.7741 37.0658 42.582 37.3164C42.39 37.5638 42.1279 37.7575 41.7959 37.8975C41.4671 38.0342 41.0911 38.1025 40.668 38.1025Z" fill="white"/>
<path d="M16.9863 18.1777C15.3164 18.1777 14.4814 17.3691 14.4814 15.6992V7.0332C14.4814 5.37207 15.3164 4.55469 16.9863 4.55469H19.6758V3.5791C19.6758 2.14648 20.5283 1.43457 21.8906 1.43457H26.1006C27.5244 1.43457 28.3242 2.14648 28.3242 3.5791V4.55469H31.0137C32.6924 4.55469 33.5186 5.37207 33.5186 7.0332V15.6992C33.5186 17.3691 32.6924 18.1777 31.0137 18.1777H16.9863ZM20.7305 3.50879V4.55469H27.2695V3.50879C27.2695 2.82324 26.8477 2.43652 26.127 2.43652H21.873C21.1523 2.43652 20.7305 2.82324 20.7305 3.50879ZM15.5713 7.07715V8.42188C18.0938 9.30957 20.915 9.72266 24 9.72266C27.085 9.72266 29.9062 9.30957 32.4287 8.42188V7.07715C32.4287 6.09277 31.9629 5.63574 31.0049 5.63574H16.9951C16.0371 5.63574 15.5713 6.09277 15.5713 7.07715ZM16.9951 17.1055H31.0049C31.9629 17.1055 32.4287 16.6396 32.4287 15.6553V9.56445C30.4775 10.1797 28.4121 10.5488 26.25 10.6982V11.4014C26.25 11.9727 25.916 12.3066 25.3359 12.3066H22.6641C22.084 12.3066 21.75 11.9727 21.75 11.4014V10.6982C19.5879 10.5488 17.5225 10.1797 15.5713 9.56445V15.6553C15.5713 16.6396 16.0371 17.1055 16.9951 17.1055Z" fill="white"/>
</svg>
