<svg width="193" height="193" viewBox="0 0 193 193" fill="none" xmlns="http://www.w3.org/2000/svg">
<rect x="0.5" y="0.5" width="192" height="192" rx="32" fill="white" fill-opacity="0.08"/>
<path d="M65 141.516C63.4531 140.344 63.0781 138.422 64.0625 135.562L74 105.562L48.3125 87.0469C45.875 85.3125 44.9844 83.5312 45.5938 81.6562C46.2031 79.8281 47.9375 78.8906 50.9844 78.8906L82.5781 79.0781L92.2344 48.9375C93.1719 46.0312 94.5312 44.6719 96.5 44.6719C98.4219 44.6719 99.8281 46.0312 100.766 48.9375L110.422 79.0781L142.016 78.8906C145.016 78.8906 146.75 79.8281 147.359 81.6562C147.969 83.5312 147.125 85.3125 144.688 87.0469L118.953 105.562L128.938 135.562C129.922 138.422 129.547 140.344 127.953 141.516C126.406 142.688 124.438 142.359 122.047 140.578L96.5 121.875L70.9531 140.578C68.5156 142.359 66.5938 142.688 65 141.516Z" fill="white"/>
</svg>
