<svg width="55" height="40" viewBox="0 0 55 40" fill="none" xmlns="http://www.w3.org/2000/svg">
<path d="M2.21191 38V31.9014H-0.00488281V30.9541H5.52246V31.9014H3.30566V38H2.21191ZM6.65527 38V32.6973H7.71973V38H6.65527ZM7.19238 31.75C7.01009 31.75 6.85384 31.6849 6.72363 31.5547C6.59342 31.4245 6.52832 31.2682 6.52832 31.0859C6.52832 30.9036 6.59342 30.749 6.72363 30.6221C6.85384 30.4919 7.01009 30.4268 7.19238 30.4268C7.37467 30.4268 7.53092 30.4919 7.66113 30.6221C7.79134 30.749 7.85645 30.9036 7.85645 31.0859C7.85645 31.2682 7.79134 31.4245 7.66113 31.5547C7.53092 31.6849 7.37467 31.75 7.19238 31.75ZM9.25781 38V32.6973H10.3174V33.5127H10.4004C10.5176 33.2197 10.6999 32.9935 10.9473 32.834C11.1979 32.6745 11.4974 32.5947 11.8457 32.5947C12.0866 32.5947 12.3031 32.6338 12.4951 32.7119C12.6872 32.79 12.8516 32.9007 12.9883 33.0439C13.1283 33.1839 13.2373 33.3499 13.3154 33.542H13.3984C13.4863 33.3499 13.61 33.1839 13.7695 33.0439C13.929 32.9007 14.1146 32.79 14.3262 32.7119C14.541 32.6338 14.7689 32.5947 15.0098 32.5947C15.3678 32.5947 15.6738 32.6647 15.9277 32.8047C16.1816 32.9414 16.3753 33.14 16.5088 33.4004C16.6423 33.6608 16.709 33.9749 16.709 34.3428V38H15.6494V34.5967C15.6494 34.2321 15.5648 33.9587 15.3955 33.7764C15.2295 33.5941 14.974 33.5029 14.6289 33.5029C14.4043 33.5029 14.2074 33.555 14.0381 33.6592C13.8721 33.7601 13.7419 33.8968 13.6475 34.0693C13.5563 34.2386 13.5107 34.4307 13.5107 34.6455V38H12.4512V34.4893C12.4512 34.1865 12.3584 33.9473 12.1729 33.7715C11.9906 33.5924 11.7432 33.5029 11.4307 33.5029C11.2191 33.5029 11.0286 33.5583 10.8594 33.6689C10.6934 33.7796 10.5615 33.9294 10.4639 34.1182C10.3662 34.3037 10.3174 34.512 10.3174 34.7432V38H9.25781ZM20.4199 38.1025C19.9023 38.1025 19.458 37.9919 19.0869 37.7705C18.7158 37.5459 18.4294 37.2285 18.2275 36.8184C18.029 36.4082 17.9297 35.9232 17.9297 35.3633V35.3584C17.9297 34.805 18.029 34.3216 18.2275 33.9082C18.4294 33.4948 18.7126 33.1725 19.0771 32.9414C19.445 32.7103 19.8747 32.5947 20.3662 32.5947C20.861 32.5947 21.2858 32.7054 21.6406 32.9268C21.9987 33.1481 22.2738 33.459 22.4658 33.8594C22.6579 34.2565 22.7539 34.722 22.7539 35.2559V35.627H18.4668V34.8701H22.2266L21.7188 35.5732V35.1484C21.7188 34.7708 21.6602 34.4583 21.543 34.2109C21.429 33.9603 21.2712 33.7731 21.0693 33.6494C20.8675 33.5257 20.6348 33.4639 20.3711 33.4639C20.1074 33.4639 19.8714 33.529 19.6631 33.6592C19.458 33.7861 19.2952 33.9749 19.1748 34.2256C19.0576 34.4762 18.999 34.7839 18.999 35.1484V35.5732C18.999 35.9215 19.0576 36.2194 19.1748 36.4668C19.292 36.7142 19.458 36.903 19.6729 37.0332C19.891 37.1634 20.1481 37.2285 20.4443 37.2285C20.6722 37.2285 20.8675 37.1976 21.0303 37.1357C21.1963 37.0706 21.3314 36.9909 21.4355 36.8965C21.543 36.8021 21.6162 36.7093 21.6553 36.6182L21.6748 36.5791H22.7002L22.6904 36.623C22.6449 36.7988 22.5651 36.9746 22.4512 37.1504C22.3372 37.3229 22.1859 37.4808 21.9971 37.624C21.8115 37.7673 21.5869 37.8828 21.3232 37.9707C21.0628 38.0586 20.7617 38.1025 20.4199 38.1025ZM25.9424 38.1025C25.516 38.1025 25.1449 38.0407 24.8291 37.917C24.5133 37.79 24.2627 37.6159 24.0771 37.3945C23.8916 37.1699 23.7826 36.9095 23.75 36.6133V36.6035H24.8145V36.6133C24.8828 36.8118 25.013 36.973 25.2051 37.0967C25.3971 37.2204 25.651 37.2822 25.9668 37.2822C26.1849 37.2822 26.3753 37.2513 26.5381 37.1895C26.7041 37.1276 26.8343 37.0413 26.9287 36.9307C27.0231 36.82 27.0703 36.693 27.0703 36.5498V36.54C27.0703 36.374 27.0036 36.234 26.8701 36.1201C26.7367 36.0062 26.5169 35.9134 26.2109 35.8418L25.3613 35.6465C24.8633 35.5326 24.4938 35.3584 24.2529 35.124C24.0153 34.8864 23.8965 34.5739 23.8965 34.1865V34.1816C23.8965 33.8724 23.9844 33.599 24.1602 33.3613C24.3359 33.1204 24.5785 32.9333 24.8877 32.7998C25.2002 32.6631 25.5566 32.5947 25.957 32.5947C26.3607 32.5947 26.7122 32.6582 27.0117 32.7852C27.3145 32.9089 27.5537 33.0814 27.7295 33.3027C27.9053 33.5208 28.0094 33.7747 28.042 34.0645V34.0693H27.0264V34.0596C26.9775 33.874 26.8604 33.7194 26.6748 33.5957C26.4925 33.472 26.2516 33.4102 25.9521 33.4102C25.7601 33.4102 25.5892 33.4411 25.4395 33.5029C25.2897 33.5615 25.1709 33.6445 25.083 33.752C24.9984 33.8561 24.9561 33.9798 24.9561 34.123V34.1328C24.9561 34.2988 25.0212 34.4355 25.1514 34.543C25.2816 34.6504 25.4948 34.7399 25.791 34.8115L26.6357 35.002C27.1436 35.1224 27.5212 35.2965 27.7686 35.5244C28.0192 35.7523 28.1445 36.0583 28.1445 36.4424V36.4521C28.1445 36.7777 28.0485 37.0658 27.8564 37.3164C27.6644 37.5638 27.4023 37.7575 27.0703 37.8975C26.7415 38.0342 26.3656 38.1025 25.9424 38.1025ZM29.4531 38V30.6172H30.5127V33.498H30.5957C30.7259 33.2148 30.918 32.9935 31.1719 32.834C31.4258 32.6745 31.7464 32.5947 32.1338 32.5947C32.5277 32.5947 32.8613 32.6712 33.1348 32.8242C33.4082 32.9772 33.6165 33.2018 33.7598 33.498C33.903 33.791 33.9746 34.1475 33.9746 34.5674V38H32.9102V34.8164C32.9102 34.3737 32.8174 34.0449 32.6318 33.8301C32.4495 33.612 32.1631 33.5029 31.7725 33.5029C31.5153 33.5029 31.2923 33.5599 31.1035 33.6738C30.9147 33.7845 30.7682 33.944 30.6641 34.1523C30.5632 34.3574 30.5127 34.6032 30.5127 34.8896V38H29.4531ZM37.6758 38.1025C37.1582 38.1025 36.7139 37.9919 36.3428 37.7705C35.9717 37.5459 35.6852 37.2285 35.4834 36.8184C35.2848 36.4082 35.1855 35.9232 35.1855 35.3633V35.3584C35.1855 34.805 35.2848 34.3216 35.4834 33.9082C35.6852 33.4948 35.9684 33.1725 36.333 32.9414C36.7008 32.7103 37.1305 32.5947 37.6221 32.5947C38.1169 32.5947 38.5417 32.7054 38.8965 32.9268C39.2546 33.1481 39.5296 33.459 39.7217 33.8594C39.9137 34.2565 40.0098 34.722 40.0098 35.2559V35.627H35.7227V34.8701H39.4824L38.9746 35.5732V35.1484C38.9746 34.7708 38.916 34.4583 38.7988 34.2109C38.6849 33.9603 38.527 33.7731 38.3252 33.6494C38.1234 33.5257 37.8906 33.4639 37.627 33.4639C37.3633 33.4639 37.1273 33.529 36.9189 33.6592C36.7139 33.7861 36.5511 33.9749 36.4307 34.2256C36.3135 34.4762 36.2549 34.7839 36.2549 35.1484V35.5732C36.2549 35.9215 36.3135 36.2194 36.4307 36.4668C36.5479 36.7142 36.7139 36.903 36.9287 37.0332C37.1468 37.1634 37.404 37.2285 37.7002 37.2285C37.9281 37.2285 38.1234 37.1976 38.2861 37.1357C38.4521 37.0706 38.5872 36.9909 38.6914 36.8965C38.7988 36.8021 38.8721 36.7093 38.9111 36.6182L38.9307 36.5791H39.9561L39.9463 36.623C39.9007 36.7988 39.821 36.9746 39.707 37.1504C39.5931 37.3229 39.4417 37.4808 39.2529 37.624C39.0674 37.7673 38.8428 37.8828 38.5791 37.9707C38.3187 38.0586 38.0176 38.1025 37.6758 38.1025ZM43.4961 38.1025C42.9785 38.1025 42.5342 37.9919 42.1631 37.7705C41.792 37.5459 41.5055 37.2285 41.3037 36.8184C41.1051 36.4082 41.0059 35.9232 41.0059 35.3633V35.3584C41.0059 34.805 41.1051 34.3216 41.3037 33.9082C41.5055 33.4948 41.7887 33.1725 42.1533 32.9414C42.5212 32.7103 42.9508 32.5947 43.4424 32.5947C43.9372 32.5947 44.362 32.7054 44.7168 32.9268C45.0749 33.1481 45.3499 33.459 45.542 33.8594C45.734 34.2565 45.8301 34.722 45.8301 35.2559V35.627H41.543V34.8701H45.3027L44.7949 35.5732V35.1484C44.7949 34.7708 44.7363 34.4583 44.6191 34.2109C44.5052 33.9603 44.3473 33.7731 44.1455 33.6494C43.9437 33.5257 43.7109 33.4639 43.4473 33.4639C43.1836 33.4639 42.9476 33.529 42.7393 33.6592C42.5342 33.7861 42.3714 33.9749 42.251 34.2256C42.1338 34.4762 42.0752 34.7839 42.0752 35.1484V35.5732C42.0752 35.9215 42.1338 36.2194 42.251 36.4668C42.3682 36.7142 42.5342 36.903 42.749 37.0332C42.9671 37.1634 43.2243 37.2285 43.5205 37.2285C43.7484 37.2285 43.9437 37.1976 44.1064 37.1357C44.2725 37.0706 44.4076 36.9909 44.5117 36.8965C44.6191 36.8021 44.6924 36.7093 44.7314 36.6182L44.751 36.5791H45.7764L45.7666 36.623C45.721 36.7988 45.6413 36.9746 45.5273 37.1504C45.4134 37.3229 45.262 37.4808 45.0732 37.624C44.8877 37.7673 44.6631 37.8828 44.3994 37.9707C44.139 38.0586 43.8379 38.1025 43.4961 38.1025ZM49.0918 38.0342C48.5124 38.0342 48.0924 37.9235 47.832 37.7021C47.5749 37.4775 47.4463 37.1113 47.4463 36.6035V33.5322H46.6162V32.6973H47.4463V31.3594H48.5303V32.6973H49.668V33.5322H48.5303V36.3447C48.5303 36.6312 48.5872 36.8379 48.7012 36.9648C48.8151 37.0885 49.0039 37.1504 49.2676 37.1504C49.3457 37.1504 49.4124 37.1488 49.4678 37.1455C49.5264 37.1423 49.5931 37.1374 49.668 37.1309V37.9805C49.5833 37.9935 49.4922 38.0049 49.3945 38.0146C49.2969 38.0277 49.196 38.0342 49.0918 38.0342ZM52.7588 38.1025C52.3324 38.1025 51.9613 38.0407 51.6455 37.917C51.3298 37.79 51.0791 37.6159 50.8936 37.3945C50.708 37.1699 50.599 36.9095 50.5664 36.6133V36.6035H51.6309V36.6133C51.6992 36.8118 51.8294 36.973 52.0215 37.0967C52.2135 37.2204 52.4674 37.2822 52.7832 37.2822C53.0013 37.2822 53.1917 37.2513 53.3545 37.1895C53.5205 37.1276 53.6507 37.0413 53.7451 36.9307C53.8395 36.82 53.8867 36.693 53.8867 36.5498V36.54C53.8867 36.374 53.82 36.234 53.6865 36.1201C53.5531 36.0062 53.3333 35.9134 53.0273 35.8418L52.1777 35.6465C51.6797 35.5326 51.3102 35.3584 51.0693 35.124C50.8317 34.8864 50.7129 34.5739 50.7129 34.1865V34.1816C50.7129 33.8724 50.8008 33.599 50.9766 33.3613C51.1523 33.1204 51.3949 32.9333 51.7041 32.7998C52.0166 32.6631 52.373 32.5947 52.7734 32.5947C53.1771 32.5947 53.5286 32.6582 53.8281 32.7852C54.1309 32.9089 54.3701 33.0814 54.5459 33.3027C54.7217 33.5208 54.8258 33.7747 54.8584 34.0645V34.0693H53.8428V34.0596C53.7939 33.874 53.6768 33.7194 53.4912 33.5957C53.3089 33.472 53.068 33.4102 52.7686 33.4102C52.5765 33.4102 52.4056 33.4411 52.2559 33.5029C52.1061 33.5615 51.9873 33.6445 51.8994 33.752C51.8148 33.8561 51.7725 33.9798 51.7725 34.123V34.1328C51.7725 34.2988 51.8376 34.4355 51.9678 34.543C52.098 34.6504 52.3112 34.7399 52.6074 34.8115L53.4521 35.002C53.96 35.1224 54.3376 35.2965 54.585 35.5244C54.8356 35.7523 54.9609 36.0583 54.9609 36.4424V36.4521C54.9609 36.7777 54.8649 37.0658 54.6729 37.3164C54.4808 37.5638 54.2188 37.7575 53.8867 37.8975C53.5579 38.0342 53.182 38.1025 52.7588 38.1025Z" fill="white"/>
<path d="M28 19.4697C23.1748 19.4697 19.1846 15.4795 19.1846 10.6543C19.1846 5.82031 23.166 1.83887 27.9912 1.83887C32.8252 1.83887 36.8154 5.82031 36.8154 10.6543C36.8154 15.4795 32.8252 19.4697 28 19.4697ZM23.2188 11.5156H27.9912C28.2725 11.5156 28.4834 11.3047 28.4834 11.0322V4.87109C28.4834 4.59863 28.2725 4.39648 27.9912 4.39648C27.7275 4.39648 27.5166 4.59863 27.5166 4.87109V10.5576H23.2188C22.9463 10.5576 22.7441 10.7686 22.7441 11.0322C22.7441 11.3047 22.9463 11.5156 23.2188 11.5156Z" fill="white"/>
</svg>
